<?xml version="1.0" encoding="UTF-8"?>
<!DOCTYPE svg PUBLIC "-//W3C//DTD SVG 1.1//EN" "http://www.w3.org/Graphics/SVG/1.1/DTD/svg11.dtd">
<svg xmlns="http://www.w3.org/2000/svg" version="1.1" width="100px" height="100px" style="shape-rendering:geometricPrecision; text-rendering:geometricPrecision; image-rendering:optimizeQuality; fill-rule:evenodd; clip-rule:evenodd" xmlns:xlink="http://www.w3.org/1999/xlink">
<g><path style="opacity:0.986" fill="#F26722" d="M 12.5,7.5 C 37.1689,7.33336 61.8356,7.50003 86.5,8C 88.3333,9.16667 89.8333,10.6667 91,12.5C 91.6667,37.1667 91.6667,61.8333 91,86.5C 89.8333,88.3333 88.3333,89.8333 86.5,91C 61.8333,91.6667 37.1667,91.6667 12.5,91C 10.6667,89.8333 9.16667,88.3333 8,86.5C 7.33333,61.8333 7.33333,37.1667 8,12.5C 9.36569,10.6383 10.8657,8.97167 12.5,7.5 Z M 35.5,28.5 C 47.1403,34.9876 58.4736,41.9876 69.5,49.5C 58.5859,56.8753 47.4192,63.8753 36,70.5C 35.5001,56.504 35.3334,42.504 35.5,28.5 Z"/></g>
</svg>
