<?xml version="1.0" encoding="UTF-8"?>
<!DOCTYPE svg PUBLIC "-//W3C//DTD SVG 1.1//EN" "http://www.w3.org/Graphics/SVG/1.1/DTD/svg11.dtd">
<svg xmlns="http://www.w3.org/2000/svg" version="1.1" width="90px" height="92px" style="shape-rendering:geometricPrecision; text-rendering:geometricPrecision; image-rendering:optimizeQuality; fill-rule:evenodd; clip-rule:evenodd" xmlns:xlink="http://www.w3.org/1999/xlink">
<g><path style="opacity:0.947" fill="#F26722" d="M 17.5,11.5 C 34.8365,11.3334 52.1699,11.5001 69.5,12C 75.5697,16.0623 81.0697,20.8956 86,26.5C 87.6398,44.7428 87.9731,63.0761 87,81.5C 86.1667,84.3333 84.3333,86.1667 81.5,87C 60.1667,87.6667 38.8333,87.6667 17.5,87C 14.6667,86.1667 12.8333,84.3333 12,81.5C 11.3333,60.1667 11.3333,38.8333 12,17.5C 13.0209,14.6499 14.8542,12.6499 17.5,11.5 Z M 23.5,20.5 C 35.1714,20.3335 46.8381,20.5001 58.5,21C 59.4162,21.3742 60.2496,21.8742 61,22.5C 61.6667,26.5 61.6667,30.5 61,34.5C 60.5,35 60,35.5 59.5,36C 47.1667,36.6667 34.8333,36.6667 22.5,36C 19.567,30.5239 19.9003,25.3572 23.5,20.5 Z M 45.5,54.5 C 54.5967,53.607 59.93,57.607 61.5,66.5C 60.4521,73.714 56.2855,77.714 49,78.5C 39.3902,75.9448 36.0569,69.9448 39,60.5C 40.914,58.1435 43.0807,56.1435 45.5,54.5 Z"/></g>
</svg>
